<mxfile host="app.diagrams.net" modified="2022-02-06T11:02:11.936Z" agent="5.0 (X11; Linux x86_64) AppleWebKit/537.36 (KHTML, like Gecko) Chrome/91.0.4472.77 Safari/537.36" etag="DPiKXdB-FnS2UntQcOFS" version="16.5.3" type="github">
  <diagram id="ve3yzAwvttti_Nnn-5PZ" name="Page-1">
    <mxGraphModel dx="782" dy="777" grid="1" gridSize="10" guides="1" tooltips="1" connect="1" arrows="1" fold="1" page="1" pageScale="1" pageWidth="827" pageHeight="1169" math="0" shadow="0">
      <root>
        <mxCell id="0" />
        <mxCell id="1" parent="0" />
        <mxCell id="JY-KGmy3V36ZBkHbUrZ5-1" value="" style="strokeWidth=1;shadow=0;dashed=0;align=center;html=1;shape=mxgraph.mockup.containers.browserWindow;rSize=0;strokeColor=#666666;strokeColor2=#008cff;strokeColor3=#c4c4c4;mainText=,;recursiveResize=0;" vertex="1" parent="1">
          <mxGeometry x="60" y="50" width="680" height="510" as="geometry" />
        </mxCell>
        <mxCell id="JY-KGmy3V36ZBkHbUrZ5-2" value="Page 1" style="strokeWidth=1;shadow=0;dashed=0;align=center;html=1;shape=mxgraph.mockup.containers.anchor;fontSize=17;fontColor=#666666;align=left;" vertex="1" parent="JY-KGmy3V36ZBkHbUrZ5-1">
          <mxGeometry x="60" y="12" width="110" height="26" as="geometry" />
        </mxCell>
        <mxCell id="JY-KGmy3V36ZBkHbUrZ5-3" value="https://www.web3-ticket.io" style="strokeWidth=1;shadow=0;dashed=0;align=center;html=1;shape=mxgraph.mockup.containers.anchor;rSize=0;fontSize=17;fontColor=#666666;align=left;" vertex="1" parent="JY-KGmy3V36ZBkHbUrZ5-1">
          <mxGeometry x="130" y="60" width="250" height="26" as="geometry" />
        </mxCell>
        <mxCell id="JY-KGmy3V36ZBkHbUrZ5-4" value="&lt;b&gt;&lt;font style=&quot;font-size: 17px&quot;&gt;Create Event&lt;/font&gt;&lt;/b&gt;" style="rounded=0;whiteSpace=wrap;html=1;" vertex="1" parent="JY-KGmy3V36ZBkHbUrZ5-1">
          <mxGeometry x="466" y="125" width="160" height="55" as="geometry" />
        </mxCell>
        <mxCell id="JY-KGmy3V36ZBkHbUrZ5-5" value="&lt;b&gt;&lt;font style=&quot;font-size: 17px&quot;&gt;Web 3 Ticket Platform&lt;/font&gt;&lt;/b&gt;" style="text;html=1;strokeColor=none;fillColor=none;align=center;verticalAlign=middle;whiteSpace=wrap;rounded=0;" vertex="1" parent="JY-KGmy3V36ZBkHbUrZ5-1">
          <mxGeometry x="70" y="137.5" width="219" height="30" as="geometry" />
        </mxCell>
        <mxCell id="JY-KGmy3V36ZBkHbUrZ5-6" value="Event 1" style="rounded=1;whiteSpace=wrap;html=1;fontSize=17;" vertex="1" parent="JY-KGmy3V36ZBkHbUrZ5-1">
          <mxGeometry x="70" y="230" width="390" height="60" as="geometry" />
        </mxCell>
        <mxCell id="JY-KGmy3V36ZBkHbUrZ5-7" value="Buy Ticket" style="rounded=1;whiteSpace=wrap;html=1;fontSize=17;" vertex="1" parent="JY-KGmy3V36ZBkHbUrZ5-1">
          <mxGeometry x="500" y="230" width="120" height="60" as="geometry" />
        </mxCell>
        <mxCell id="JY-KGmy3V36ZBkHbUrZ5-10" value="Event 3" style="rounded=1;whiteSpace=wrap;html=1;fontSize=17;" vertex="1" parent="JY-KGmy3V36ZBkHbUrZ5-1">
          <mxGeometry x="70" y="390" width="390" height="60" as="geometry" />
        </mxCell>
        <mxCell id="JY-KGmy3V36ZBkHbUrZ5-11" value="Buy Ticket" style="rounded=1;whiteSpace=wrap;html=1;fontSize=17;" vertex="1" parent="JY-KGmy3V36ZBkHbUrZ5-1">
          <mxGeometry x="500" y="390" width="120" height="60" as="geometry" />
        </mxCell>
        <mxCell id="JY-KGmy3V36ZBkHbUrZ5-8" value="Event 2" style="rounded=1;whiteSpace=wrap;html=1;fontSize=17;" vertex="1" parent="JY-KGmy3V36ZBkHbUrZ5-1">
          <mxGeometry x="70" y="310" width="390" height="60" as="geometry" />
        </mxCell>
        <mxCell id="JY-KGmy3V36ZBkHbUrZ5-9" value="Buy Ticket" style="rounded=1;whiteSpace=wrap;html=1;fontSize=17;" vertex="1" parent="JY-KGmy3V36ZBkHbUrZ5-1">
          <mxGeometry x="500" y="310" width="120" height="60" as="geometry" />
        </mxCell>
        <mxCell id="JY-KGmy3V36ZBkHbUrZ5-12" value="" style="strokeWidth=1;shadow=0;dashed=0;align=center;html=1;shape=mxgraph.mockup.containers.browserWindow;rSize=0;strokeColor=#666666;strokeColor2=#008cff;strokeColor3=#c4c4c4;mainText=,;recursiveResize=0;" vertex="1" parent="1">
          <mxGeometry x="60" y="600" width="680" height="480" as="geometry" />
        </mxCell>
        <mxCell id="JY-KGmy3V36ZBkHbUrZ5-13" value="Page 1" style="strokeWidth=1;shadow=0;dashed=0;align=center;html=1;shape=mxgraph.mockup.containers.anchor;fontSize=17;fontColor=#666666;align=left;" vertex="1" parent="JY-KGmy3V36ZBkHbUrZ5-12">
          <mxGeometry x="60" y="12" width="110" height="26" as="geometry" />
        </mxCell>
        <mxCell id="JY-KGmy3V36ZBkHbUrZ5-14" value="https://www.web3-ticket.io/event" style="strokeWidth=1;shadow=0;dashed=0;align=center;html=1;shape=mxgraph.mockup.containers.anchor;rSize=0;fontSize=17;fontColor=#666666;align=left;" vertex="1" parent="JY-KGmy3V36ZBkHbUrZ5-12">
          <mxGeometry x="130" y="60" width="250" height="26" as="geometry" />
        </mxCell>
        <mxCell id="JY-KGmy3V36ZBkHbUrZ5-15" value="&lt;b&gt;&lt;font style=&quot;font-size: 17px&quot;&gt;Create Event&lt;/font&gt;&lt;/b&gt;" style="rounded=0;whiteSpace=wrap;html=1;" vertex="1" parent="JY-KGmy3V36ZBkHbUrZ5-12">
          <mxGeometry x="466" y="125" width="160" height="55" as="geometry" />
        </mxCell>
        <mxCell id="JY-KGmy3V36ZBkHbUrZ5-16" value="&lt;b&gt;&lt;font style=&quot;font-size: 17px&quot;&gt;Web 3 Ticket Platform&lt;/font&gt;&lt;/b&gt;" style="text;html=1;strokeColor=none;fillColor=none;align=center;verticalAlign=middle;whiteSpace=wrap;rounded=0;" vertex="1" parent="JY-KGmy3V36ZBkHbUrZ5-12">
          <mxGeometry x="70" y="137.5" width="219" height="30" as="geometry" />
        </mxCell>
        <mxCell id="JY-KGmy3V36ZBkHbUrZ5-17" value="Event detail" style="rounded=1;whiteSpace=wrap;html=1;fontSize=17;" vertex="1" parent="JY-KGmy3V36ZBkHbUrZ5-12">
          <mxGeometry x="70" y="230" width="390" height="200" as="geometry" />
        </mxCell>
        <mxCell id="JY-KGmy3V36ZBkHbUrZ5-18" value="Buy Ticket" style="rounded=1;whiteSpace=wrap;html=1;fontSize=17;" vertex="1" parent="JY-KGmy3V36ZBkHbUrZ5-12">
          <mxGeometry x="500" y="230" width="120" height="50" as="geometry" />
        </mxCell>
        <mxCell id="JY-KGmy3V36ZBkHbUrZ5-23" value="info" style="rounded=1;whiteSpace=wrap;html=1;fontSize=17;" vertex="1" parent="JY-KGmy3V36ZBkHbUrZ5-12">
          <mxGeometry x="500" y="300" width="120" height="130" as="geometry" />
        </mxCell>
      </root>
    </mxGraphModel>
  </diagram>
</mxfile>
